<svg xmlns="http://www.w3.org/2000/svg" xmlns:xlink="http://www.w3.org/1999/xlink" width="801" height="187" viewBox="0 0 801 187">
  <defs>
    <style>
      .cls-1 {
        fill-rule: evenodd;
        filter: url(#filter);
      }
    </style>
    <filter id="filter" x="-0.719" y="-0.563" width="802.5" height="188.156" filterUnits="userSpaceOnUse">
      <feFlood result="flood" flood-color="#fff"/>
      <feComposite result="composite" operator="in" in2="SourceGraphic"/>
      <feBlend result="blend" in2="SourceGraphic"/>
    </filter>
  </defs>
  <path id="sugarpix" class="cls-1" d="M39.6,140.741a44.785,44.785,0,0,0,18.556-3.64,29.6,29.6,0,0,0,12.519-10.033,24.639,24.639,0,0,0,4.439-14.383q-0.179-8.877-4.883-14.383a29.872,29.872,0,0,0-11.276-8.257A141.042,141.042,0,0,0,41.9,84.451a133.753,133.753,0,0,1-13.051-4.173,22.659,22.659,0,0,1-7.813-4.972,10.7,10.7,0,0,1-3.107-7.9,11.522,11.522,0,0,1,5.15-9.766q5.148-3.729,13.851-3.729,9.41,0,15,4.617a16.7,16.7,0,0,1,6.126,12.252H74.223Q73.511,56.574,63.569,48.4t-26.1-8.168a45.385,45.385,0,0,0-18.645,3.64A30.09,30.09,0,0,0,6.213,53.731,23.005,23.005,0,0,0,1.774,67.4q0,9.414,4.883,15.182a31.323,31.323,0,0,0,11.72,8.7,128.829,128.829,0,0,0,17.668,5.771q11.894,3.021,17.579,6.127a10.158,10.158,0,0,1,5.682,9.5,12.477,12.477,0,0,1-5.327,10.3q-5.327,4.086-14.561,4.084-9.947,0-16.07-4.617a16.37,16.37,0,0,1-6.836-11.9H-0.18A28.327,28.327,0,0,0,5.5,126.269a33.816,33.816,0,0,0,14.028,10.654A50.35,50.35,0,0,0,39.6,140.741h0ZM172.064,41.834V95.283q0,15.273-7.458,23.262t-20.42,7.99q-12.611,0-19.888-7.724T117.017,96.7V41.834H101.036v57q0,13.5,5.238,22.907a34.179,34.179,0,0,0,14.3,14.117,43.608,43.608,0,0,0,20.42,4.7,39.781,39.781,0,0,0,18.2-4.173,31.448,31.448,0,0,0,12.874-11.63v14.383h16.159V41.834H172.064Zm88.076-1.6a45.543,45.543,0,0,0-23.529,6.215,43.814,43.814,0,0,0-16.6,17.491q-6.037,11.279-6.037,26.192a55.847,55.847,0,0,0,6.037,26.281,44.272,44.272,0,0,0,40.132,24.327q12.606,0,22.018-5.682a38.891,38.891,0,0,0,14.206-14.206v20.421q0,15.09-8.435,23.439t-21.752,8.346q-11.72,0-20.066-5.416A25.43,25.43,0,0,1,235.1,153.348H219.121a35.391,35.391,0,0,0,15.093,24.683q12.786,9.055,31.963,9.056,14.025,0,24.594-5.86a40.518,40.518,0,0,0,16.247-16.248,48.587,48.587,0,0,0,5.683-23.705V41.834H296.364V59.591a36.565,36.565,0,0,0-14.117-13.851,43.323,43.323,0,0,0-22.107-5.5h0Zm36.224,50.075a40.1,40.1,0,0,1-4.439,19.266,31.226,31.226,0,0,1-11.986,12.608,32.642,32.642,0,0,1-16.6,4.35,32.157,32.157,0,0,1-16.514-4.35,31.393,31.393,0,0,1-11.9-12.608,40.466,40.466,0,0,1-4.439-19.444,39.561,39.561,0,0,1,4.439-19.178,30.921,30.921,0,0,1,11.9-12.43,33.991,33.991,0,0,1,33.117.089,31.39,31.39,0,0,1,11.986,12.519,39.6,39.6,0,0,1,4.439,19.178h0Zm42.8-.178a55.835,55.835,0,0,0,6.037,26.281,44.8,44.8,0,0,0,16.514,17.934,44.1,44.1,0,0,0,23.439,6.393,42.765,42.765,0,0,0,22.108-5.594,38.086,38.086,0,0,0,14.3-14.116v18.112h16.336V41.834H421.552V59.591a36.709,36.709,0,0,0-14.029-13.851q-9.414-5.5-22.2-5.5A45.539,45.539,0,0,0,361.8,46.451a43.8,43.8,0,0,0-16.6,17.491q-6.039,11.279-6.037,26.192h0Zm82.393,0.178a40.092,40.092,0,0,1-4.44,19.266,31.22,31.22,0,0,1-11.986,12.608,32.64,32.64,0,0,1-16.6,4.35,32.159,32.159,0,0,1-16.514-4.35,31.391,31.391,0,0,1-11.9-12.608,40.466,40.466,0,0,1-4.439-19.444,39.561,39.561,0,0,1,4.439-19.178,30.918,30.918,0,0,1,11.9-12.43,33.991,33.991,0,0,1,33.117.089,31.383,31.383,0,0,1,11.986,12.519,39.584,39.584,0,0,1,4.44,19.178h0Zm64.99-32.673v-15.8H470.384v97.309h16.158V86.227q0-29.474,27.169-29.477h4.262V40.058q-11.367,0-19.267,4.617a31.012,31.012,0,0,0-12.164,12.963h0Zm77.421-2.663V40.769H539.1V186.022h24.86V125.115A40.912,40.912,0,0,0,577.37,136.3a39.722,39.722,0,0,0,19.089,4.439,42.125,42.125,0,0,0,22.818-6.393,44.748,44.748,0,0,0,16.159-18.023q5.947-11.628,5.948-26.725t-5.948-26.547a43.761,43.761,0,0,0-16.159-17.668,43.037,43.037,0,0,0-22.818-6.215A40.09,40.09,0,0,0,577.192,43.7a37.757,37.757,0,0,0-13.229,11.276h0ZM615.992,89.6a31.788,31.788,0,0,1-3.64,15.627,26.358,26.358,0,0,1-9.589,10.121,25.058,25.058,0,0,1-25.571.089A25.669,25.669,0,0,1,567.6,105.4a31.353,31.353,0,0,1-3.641-15.448A31.369,31.369,0,0,1,567.6,74.507a25.689,25.689,0,0,1,9.588-10.033,24.824,24.824,0,0,1,12.7-3.463,25.685,25.685,0,0,1,12.874,3.374,25.229,25.229,0,0,1,9.589,9.855,30.909,30.909,0,0,1,3.64,15.36h0ZM676.9,29.049a15.148,15.148,0,0,0,10.92-4.173,13.8,13.8,0,0,0,4.351-10.388A13.811,13.811,0,0,0,687.819,4.1a16.376,16.376,0,0,0-21.841,0,13.8,13.8,0,0,0-4.351,10.388,13.8,13.8,0,0,0,4.351,10.388A15.141,15.141,0,0,0,676.9,29.049h0Zm-12.608,11.72v98.375h24.86V40.769h-24.86Zm136.552,98.375L768.17,89.778l32.318-49.01H773.852L755.74,71.133,735.675,40.769H707.618l32.5,49.01-32.141,49.365h26.636L752.544,108.6l20.243,30.542h28.056Z"/>
</svg>
